# xmcd CD database file
#
# Track frame offsets:
#	150
#	35855
#	57485
#	79667
#	110293
#	131624
#	155651
#	185745
#	215686
#	235820
#	258080
#	281571
#	310825
#
# Disc length: 4784 seconds
#
# Revision: 0
# Processed by: cddbd v1.5.2PL0 Copyright (c) Steve Scherf et al.
# Submitted via: CDex 1.81
#
DISCID=bd12ae0d
DTITLE=Inamorata - Method Of Defiance
DYEAR=2007
DGENRE=Jazz
TTITLE0=Ta'Wil
TTITLE1=Humanoid
TTITLE2=HiddenKiller
TTITLE3=Amenta
TTITLE4=Panepha
TTITLE5=BabylonDecoder
TTITLE6=AibiVirus
TTITLE7=AntiJazzGlitch
TTITLE8=BlackWater
TTITLE9=PatternEngine
TTITLE10=Aether
TTITLE11=Remains
TTITLE12=Method900
EXTD=YEAR: 2007
EXTT0=
EXTT1=
EXTT2=
EXTT3=
EXTT4=
EXTT5=
EXTT6=
EXTT7=
EXTT8=
EXTT9=
EXTT10=
EXTT11=
EXTT12=
PLAYORDER=
